<?xml version="1.0" encoding="UTF-8" standalone="no"?>
<!-- Created with Inkscape (http://www.inkscape.org/) -->

<svg
   xmlns:dc="http://purl.org/dc/elements/1.1/"
   xmlns:cc="http://creativecommons.org/ns#"
   xmlns:rdf="http://www.w3.org/1999/02/22-rdf-syntax-ns#"
   xmlns:svg="http://www.w3.org/2000/svg"
   xmlns="http://www.w3.org/2000/svg"
   xmlns:xlink="http://www.w3.org/1999/xlink"
   xmlns:sodipodi="http://sodipodi.sourceforge.net/DTD/sodipodi-0.dtd"
   xmlns:inkscape="http://www.inkscape.org/namespaces/inkscape"
   width="75.386185mm"
   height="49.590523mm"
   viewBox="0 0 267.1164 175.71445"
   id="svg2"
   version="1.1"
   inkscape:version="0.91 r13725"
   sodipodi:docname="Schematic.svg">
  <defs
     id="defs4">
    <linearGradient
       inkscape:collect="always"
       id="linearGradient11297">
      <stop
         style="stop-color:#800000;stop-opacity:1;"
         offset="0"
         id="stop11299" />
      <stop
         style="stop-color:#800000;stop-opacity:0;"
         offset="1"
         id="stop11301" />
    </linearGradient>
    <linearGradient
       inkscape:collect="always"
       id="linearGradient11289">
      <stop
         style="stop-color:#000080;stop-opacity:1"
         offset="0"
         id="stop11291" />
      <stop
         style="stop-color:#ffffff;stop-opacity:1"
         offset="1"
         id="stop11293" />
    </linearGradient>
    <linearGradient
       inkscape:collect="always"
       id="linearGradient11225">
      <stop
         style="stop-color:#000080;stop-opacity:1;"
         offset="0"
         id="stop11227" />
      <stop
         style="stop-color:#000080;stop-opacity:0;"
         offset="1"
         id="stop11229" />
    </linearGradient>
    <marker
       inkscape:stockid="DiamondS"
       orient="auto"
       refY="0"
       refX="0"
       id="DiamondS"
       style="overflow:visible"
       inkscape:isstock="true">
      <path
         id="path4231"
         d="M 0,-7.0710768 -7.0710894,0 0,7.0710589 7.0710462,0 0,-7.0710768 Z"
         style="fill:#000000;fill-opacity:1;fill-rule:evenodd;stroke:#000000;stroke-width:1pt;stroke-opacity:1"
         transform="scale(0.2,0.2)"
         inkscape:connector-curvature="0" />
    </marker>
    <marker
       inkscape:stockid="Arrow1Send"
       orient="auto"
       refY="0"
       refX="0"
       id="Arrow1Send"
       style="overflow:visible"
       inkscape:isstock="true">
      <path
         id="path4161"
         d="M 0,0 5,-5 -12.5,0 5,5 0,0 Z"
         style="fill:#000000;fill-opacity:1;fill-rule:evenodd;stroke:#000000;stroke-width:1pt;stroke-opacity:1"
         transform="matrix(-0.2,0,0,-0.2,-1.2,0)"
         inkscape:connector-curvature="0" />
    </marker>
    <marker
       inkscape:stockid="Arrow2Mend"
       orient="auto"
       refY="0"
       refX="0"
       id="marker9862"
       style="overflow:visible"
       inkscape:isstock="true">
      <path
         id="path9864"
         style="fill:#000000;fill-opacity:1;fill-rule:evenodd;stroke:#000000;stroke-width:0.625;stroke-linejoin:round;stroke-opacity:1"
         d="M 8.7185878,4.0337352 -2.2072895,0.01601326 8.7185884,-4.0017078 c -1.7454984,2.3720609 -1.7354408,5.6174519 -6e-7,8.035443 z"
         transform="scale(-0.6,-0.6)"
         inkscape:connector-curvature="0" />
    </marker>
    <marker
       inkscape:isstock="true"
       style="overflow:visible"
       id="marker5210"
       refX="0"
       refY="0"
       orient="auto"
       inkscape:stockid="Arrow2Mend"
       inkscape:collect="always">
      <path
         transform="scale(-0.6,-0.6)"
         d="M 8.7185878,4.0337352 -2.2072895,0.01601326 8.7185884,-4.0017078 c -1.7454984,2.3720609 -1.7354408,5.6174519 -6e-7,8.035443 z"
         style="fill:#000000;fill-opacity:1;fill-rule:evenodd;stroke:#000000;stroke-width:0.625;stroke-linejoin:round;stroke-opacity:1"
         id="path5212"
         inkscape:connector-curvature="0" />
    </marker>
    <marker
       inkscape:isstock="true"
       style="overflow:visible"
       id="marker5200"
       refX="0"
       refY="0"
       orient="auto"
       inkscape:stockid="Arrow2Mend">
      <path
         transform="scale(-0.6,-0.6)"
         d="M 8.7185878,4.0337352 -2.2072895,0.01601326 8.7185884,-4.0017078 c -1.7454984,2.3720609 -1.7354408,5.6174519 -6e-7,8.035443 z"
         style="fill:#000000;fill-opacity:1;fill-rule:evenodd;stroke:#000000;stroke-width:0.625;stroke-linejoin:round;stroke-opacity:1"
         id="path5202"
         inkscape:connector-curvature="0" />
    </marker>
    <marker
       inkscape:stockid="Arrow2Mend"
       orient="auto"
       refY="0"
       refX="0"
       id="Arrow2Mend"
       style="overflow:visible"
       inkscape:isstock="true"
       inkscape:collect="always">
      <path
         id="path4173"
         style="fill:#000000;fill-opacity:1;fill-rule:evenodd;stroke:#000000;stroke-width:0.625;stroke-linejoin:round;stroke-opacity:1"
         d="M 8.7185878,4.0337352 -2.2072895,0.01601326 8.7185884,-4.0017078 c -1.7454984,2.3720609 -1.7354408,5.6174519 -6e-7,8.035443 z"
         transform="scale(-0.6,-0.6)"
         inkscape:connector-curvature="0" />
    </marker>
    <marker
       inkscape:isstock="true"
       style="overflow:visible"
       id="marker5068"
       refX="0"
       refY="0"
       orient="auto"
       inkscape:stockid="Arrow1Mend">
      <path
         transform="matrix(-0.4,0,0,-0.4,-4,0)"
         style="fill:#000000;fill-opacity:1;fill-rule:evenodd;stroke:#000000;stroke-width:1pt;stroke-opacity:1"
         d="M 0,0 5,-5 -12.5,0 5,5 0,0 Z"
         id="path5070"
         inkscape:connector-curvature="0" />
    </marker>
    <marker
       inkscape:isstock="true"
       style="overflow:visible"
       id="marker5058"
       refX="0"
       refY="0"
       orient="auto"
       inkscape:stockid="Arrow1Mend">
      <path
         transform="matrix(-0.4,0,0,-0.4,-4,0)"
         style="fill:#000000;fill-opacity:1;fill-rule:evenodd;stroke:#000000;stroke-width:1pt;stroke-opacity:1"
         d="M 0,0 5,-5 -12.5,0 5,5 0,0 Z"
         id="path5060"
         inkscape:connector-curvature="0" />
    </marker>
    <marker
       inkscape:isstock="true"
       style="overflow:visible"
       id="marker5004"
       refX="0"
       refY="0"
       orient="auto"
       inkscape:stockid="DiamondSend">
      <path
         transform="matrix(0.2,0,0,0.2,-1.2,0)"
         style="fill:#000000;fill-opacity:1;fill-rule:evenodd;stroke:#000000;stroke-width:1pt;stroke-opacity:1"
         d="M 0,-7.0710768 -7.0710894,0 0,7.0710589 7.0710462,0 0,-7.0710768 Z"
         id="path5006"
         inkscape:connector-curvature="0" />
    </marker>
    <marker
       inkscape:stockid="Arrow1Mend"
       orient="auto"
       refY="0"
       refX="0"
       id="marker4720"
       style="overflow:visible"
       inkscape:isstock="true">
      <path
         id="path4722"
         d="M 0,0 5,-5 -12.5,0 5,5 0,0 Z"
         style="fill:#000000;fill-opacity:1;fill-rule:evenodd;stroke:#000000;stroke-width:1pt;stroke-opacity:1"
         transform="matrix(-0.4,0,0,-0.4,-4,0)"
         inkscape:connector-curvature="0" />
    </marker>
    <inkscape:perspective
       sodipodi:type="inkscape:persp3d"
       inkscape:vp_x="0 : 177.16536 : 1"
       inkscape:vp_y="0 : 1000 : 0"
       inkscape:vp_z="354.33073 : 177.16536 : 1"
       inkscape:persp3d-origin="177.16537 : 118.11024 : 1"
       id="perspective4514" />
    <marker
       inkscape:isstock="true"
       style="overflow:visible"
       id="marker4478"
       refX="0"
       refY="0"
       orient="auto"
       inkscape:stockid="Arrow1Lend">
      <path
         transform="matrix(-0.8,0,0,-0.8,-10,0)"
         style="fill:#000000;fill-opacity:1;fill-rule:evenodd;stroke:#000000;stroke-width:1pt;stroke-opacity:1"
         d="M 0,0 5,-5 -12.5,0 5,5 0,0 Z"
         id="path4480"
         inkscape:connector-curvature="0" />
    </marker>
    <marker
       inkscape:isstock="true"
       style="overflow:visible"
       id="marker4456"
       refX="0"
       refY="0"
       orient="auto"
       inkscape:stockid="Arrow1Lend">
      <path
         transform="matrix(-0.8,0,0,-0.8,-10,0)"
         style="fill:#000000;fill-opacity:1;fill-rule:evenodd;stroke:#000000;stroke-width:1pt;stroke-opacity:1"
         d="M 0,0 5,-5 -12.5,0 5,5 0,0 Z"
         id="path4458"
         inkscape:connector-curvature="0" />
    </marker>
    <marker
       inkscape:stockid="Arrow1Lend"
       orient="auto"
       refY="0"
       refX="0"
       id="Arrow1Lend"
       style="overflow:visible"
       inkscape:isstock="true"
       inkscape:collect="always">
      <path
         id="path4149"
         d="M 0,0 5,-5 -12.5,0 5,5 0,0 Z"
         style="fill:#000000;fill-opacity:1;fill-rule:evenodd;stroke:#000000;stroke-width:1pt;stroke-opacity:1"
         transform="matrix(-0.8,0,0,-0.8,-10,0)"
         inkscape:connector-curvature="0" />
    </marker>
    <linearGradient
       inkscape:collect="always"
       xlink:href="#linearGradient11225"
       id="linearGradient11231"
       x1="147.85715"
       y1="795.21936"
       x2="144.28572"
       y2="791.29077"
       gradientUnits="userSpaceOnUse" />
    <linearGradient
       inkscape:collect="always"
       xlink:href="#linearGradient11289"
       id="linearGradient11295"
       x1="147.85715"
       y1="900.21936"
       x2="143.92857"
       y2="896.64795"
       gradientUnits="userSpaceOnUse" />
    <linearGradient
       inkscape:collect="always"
       xlink:href="#linearGradient11297"
       id="linearGradient11303"
       x1="298.57144"
       y1="802.71936"
       x2="294.28571"
       y2="799.86224"
       gradientUnits="userSpaceOnUse" />
  </defs>
  <sodipodi:namedview
     id="base"
     pagecolor="#ffffff"
     bordercolor="#666666"
     borderopacity="1.0"
     inkscape:pageopacity="0.0"
     inkscape:pageshadow="2"
     inkscape:zoom="1.979899"
     inkscape:cx="128.92219"
     inkscape:cy="-35.545831"
     inkscape:document-units="cm"
     inkscape:current-layer="layer1"
     showgrid="false"
     inkscape:snap-bbox="false"
     inkscape:snap-bbox-edge-midpoints="false"
     inkscape:snap-nodes="false"
     fit-margin-top="0"
     fit-margin-left="0"
     fit-margin-right="0"
     fit-margin-bottom="0"
     inkscape:window-width="1280"
     inkscape:window-height="1388"
     inkscape:window-x="0"
     inkscape:window-y="24"
     inkscape:window-maximized="0" />
  <metadata
     id="metadata7">
    <rdf:RDF>
      <cc:Work
         rdf:about="">
        <dc:format>image/svg+xml</dc:format>
        <dc:type
           rdf:resource="http://purl.org/dc/dcmitype/StillImage" />
        <dc:title></dc:title>
      </cc:Work>
    </rdf:RDF>
  </metadata>
  <g
     inkscape:label="Layer 1"
     inkscape:groupmode="layer"
     id="layer1"
     transform="translate(-64.703634,-739.8279)">
    <path
       style="fill:none;fill-rule:evenodd;stroke:#000000;stroke-width:1px;stroke-linecap:butt;stroke-linejoin:miter;stroke-opacity:1;marker-end:url(#marker4456);marker-start:"
       d="m 120,873.94288 0,-132.29495"
       id="path4136"
       inkscape:connector-curvature="0"
       sodipodi:nodetypes="cc" />
    <path
       style="fill:none;fill-rule:evenodd;stroke:#000000;stroke-width:1px;stroke-linecap:butt;stroke-linejoin:miter;stroke-opacity:1;marker-end:url(#marker4478);marker-start:"
       d="m 120,873.79079 210,0"
       id="path4138"
       inkscape:connector-curvature="0"
       sodipodi:nodetypes="cc" />
    <path
       style="fill:none;fill-rule:evenodd;stroke:#000000;stroke-width:1px;stroke-linecap:butt;stroke-linejoin:miter;stroke-opacity:1;marker-end:url(#Arrow1Lend);marker-start:"
       d="M 119.81671,874.18945 78.104798,900.71573"
       id="path4140"
       inkscape:connector-curvature="0"
       sodipodi:nodetypes="cc" />
    <circle
       style="opacity:1;fill:url(#linearGradient11231);fill-opacity:1;stroke:none;stroke-width:5;stroke-linejoin:round;stroke-miterlimit:4;stroke-dasharray:none;stroke-dashoffset:0;stroke-opacity:1;marker-start:"
       id="circle4572"
       cx="150.13486"
       cy="796.58478"
       r="6.9695425" />
    <circle
       r="6.9695425"
       cy="806.18127"
       cx="300.14249"
       id="circle4574"
       style="opacity:1;fill:url(#linearGradient11303);fill-opacity:1;stroke:none;stroke-width:5;stroke-linejoin:round;stroke-miterlimit:4;stroke-dasharray:none;stroke-dashoffset:0;stroke-opacity:1;marker-start:" />
    <circle
       r="6.9695425"
       cy="901.58478"
       cx="150.13486"
       id="circle4578"
       style="opacity:1;fill:url(#linearGradient11295);fill-opacity:1;stroke:none;stroke-width:5;stroke-linejoin:round;stroke-miterlimit:4;stroke-dasharray:none;stroke-dashoffset:0;stroke-opacity:1;marker-start:" />
    <path
       style="fill:none;fill-rule:evenodd;stroke:#000000;stroke-width:1;stroke-linecap:butt;stroke-linejoin:miter;stroke-miterlimit:4;stroke-dasharray:1, 1;stroke-dashoffset:0;stroke-opacity:1;marker-end:url(#marker5200);marker-start:"
       d="M 120.58696,873.81776 293.44932,810.34402"
       id="path4582"
       inkscape:connector-curvature="0"
       sodipodi:nodetypes="cc" />
    <path
       style="fill:none;fill-rule:evenodd;stroke:#000000;stroke-width:1;stroke-linecap:butt;stroke-linejoin:miter;stroke-miterlimit:4;stroke-dasharray:1, 1;stroke-dashoffset:0;stroke-opacity:1;marker-end:url(#Arrow2Mend);marker-start:"
       d="m 120,873.61222 26.25,-70.12165"
       id="path4674"
       inkscape:connector-curvature="0"
       sodipodi:nodetypes="cc" />
    <path
       style="fill:none;fill-rule:evenodd;stroke:#000000;stroke-width:1;stroke-linecap:butt;stroke-linejoin:miter;stroke-miterlimit:4;stroke-dasharray:1, 1;stroke-dashoffset:0;stroke-opacity:1;marker-end:url(#marker5210);marker-start:"
       d="m 120.17857,873.43365 23.68872,22.64357"
       id="path4676"
       inkscape:connector-curvature="0"
       sodipodi:nodetypes="cc" />
    <path
       style="fill:none;fill-rule:evenodd;stroke:#000000;stroke-width:1px;stroke-linecap:butt;stroke-linejoin:miter;stroke-opacity:1;marker-end:url(#marker5058);marker-start:"
       d="m 149.50258,801.33931 0,92.91609"
       id="path5288"
       inkscape:connector-curvature="0"
       sodipodi:nodetypes="cc" />
    <path
       style="fill:none;fill-rule:evenodd;stroke:#000000;stroke-width:1px;stroke-linecap:butt;stroke-linejoin:miter;stroke-opacity:1;marker-end:url(#marker9862);marker-start:"
       d="M 294.45947,808.91545 150.39543,849.61743"
       id="path5904"
       inkscape:connector-curvature="0"
       sodipodi:nodetypes="cc" />
    <g
       id="g10214"
       transform="matrix(1.4452315,0,0,1.4452315,-98.580633,-286.27829)">
      <path
         d="m 181.08273,765.74822 c -0.17431,0.16455 -0.58545,0.51904 -0.58545,0.74659 0,0.12646 0.12451,0.25292 0.24902,0.25292 0.1123,0 0.17432,-0.0894 0.23682,-0.1665 0.14941,-0.1919 0.43555,-0.55079 0.98388,-0.83301 0.0869,-0.0488 0.21143,-0.10986 0.21143,-0.25635 0,-0.12158 -0.0869,-0.18261 -0.17431,-0.24365 -0.27393,-0.18994 -0.41065,-0.41798 -0.51074,-0.72168 -0.0249,-0.11377 -0.0747,-0.27881 -0.24903,-0.27881 -0.17432,0 -0.24902,0.16504 -0.24902,0.26611 0,0.0635 0.0996,0.46827 0.29882,0.73438 l -4.19677,0 c -0.21143,0 -0.43555,0 -0.43555,0.25 0,0.25 0.22412,0.25 0.43555,0.25"
         style="fill:#000000;fill-opacity:1;fill-rule:nonzero;stroke:none"
         id="path10146"
         inkscape:connector-curvature="0" />
      <path
         d="m 178.21164,768.98894 0,-1.36523 -1.71778,0.13086 0,0.36914 c 0.8086,0 0.90088,0.0879 0.90088,0.70166 l 0,3.35889 c 0,0.56396 -0.12695,0.56396 -0.90088,0.56396 l 0,0.375 3.00147,0 0,-0.375 -0.26563,0 c -0.93457,0 -0.95947,-0.1377 -0.95947,-0.58886 l 0,-1.92969 c 0,-1.24024 0.52832,-2.35596 1.48486,-2.35596 0.0879,0 0.11329,0 0.13868,0 -0.0488,0.0127 -0.37354,0.16698 -0.37354,0.50048 0,0.35987 0.2749,0.55225 0.5625,0.55225 0.23584,0 0.56299,-0.14892 0.56299,-0.5459 0,-0.39697 -0.3833,-0.75683 -0.91455,-0.75683 -0.90185,0 -1.34668,0.83153 -1.51953,1.36523"
         style="fill:#000000;fill-opacity:1;fill-rule:nonzero;stroke:none"
         id="path10148"
         inkscape:connector-curvature="0" />
    </g>
    <g
       id="g10218"
       transform="matrix(1.4452315,0,0,1.4452315,-58.937776,-293.77829)">
      <path
         d="m 192.33273,762.62322 c -0.17438,0.16455 -0.5855,0.51904 -0.5855,0.74659 0,0.12646 0.12462,0.25292 0.24912,0.25292 0.11225,0 0.17425,-0.0894 0.23675,-0.1665 0.14938,-0.1919 0.43563,-0.55079 0.98388,-0.83301 0.087,-0.0489 0.2115,-0.10988 0.2115,-0.25638 0,-0.1215 -0.087,-0.18262 -0.17438,-0.24362 -0.27387,-0.19 -0.41062,-0.418 -0.51075,-0.72163 -0.0249,-0.11387 -0.0746,-0.27887 -0.249,-0.27887 -0.17437,0 -0.249,0.165 -0.249,0.26612 0,0.0635 0.0996,0.46825 0.29875,0.73438 l -4.19672,0 c -0.21143,0 -0.43555,0 -0.43555,0.25 0,0.25 0.22412,0.25 0.43555,0.25"
         style="fill:#000000;fill-opacity:1;fill-rule:nonzero;stroke:none"
         id="path10150"
         inkscape:connector-curvature="0" />
      <path
         d="m 188.02023,768.74822 0,-3.24854 c 0,-0.28857 0,-0.43896 0.27197,-0.47656 0.12354,-0.0249 0.4824,-0.0249 0.72953,-0.0249 1.11325,0 2.4985,0.0503 2.4985,1.86865 0,0.86524 -0.29688,1.88135 -2.1275,1.88135 l -1.3725,0 z m 2.542,0.14404 c 1.22412,-0.29883 2.2085,-1.0581 2.2085,-2.0288 0,-1.19434 -1.42625,-2.24024 -3.26413,-2.24024 l -3.92533,0 0,0.375 0.30615,0 c 0.98193,0 1.00732,0.13867 1.00732,0.58789 l 0,6.57568 c 0,0.44922 -0.0254,0.58643 -1.00732,0.58643 l -0.30615,0 0,0.375 3.63621,0 0,-0.375 -0.27925,0 c -0.89505,0 -0.918,-0.1377 -0.918,-0.5874 l 0,-3.1626 1.40237,0 c 0.19475,0 0.707,0 1.13425,0.42187 0.46338,0.4458 0.46338,0.83008 0.46338,1.66015 0,0.80568 0,1.30128 0.50825,1.77247 0.50887,0.4458 1.191,0.52051 1.563,0.52051 0.96787,0 1.17875,-1.00538 1.17875,-1.34913 0,-0.0732 0,-0.20848 -0.19488,-0.20848 -0.165,0 -0.165,0.1123 -0.18012,0.19921 -0.0737,0.88427 -0.5025,1.1084 -0.80863,1.1084 -0.6005,0 -0.69875,-0.63476 -0.87012,-1.79199 l -0.15913,-0.99561 c -0.22075,-0.79639 -0.82087,-1.20703 -1.49512,-1.44336"
         style="fill:#000000;fill-opacity:1;fill-rule:nonzero;stroke:none"
         id="path10152"
         inkscape:connector-curvature="0" />
    </g>
    <g
       id="g10222"
       transform="matrix(1.4452315,0,0,1.4452315,-164.65206,-298.06401)">
      <path
         d="m 204.33273,765.74822 c -0.17438,0.16455 -0.5855,0.51904 -0.5855,0.74659 0,0.12646 0.12462,0.25292 0.24912,0.25292 0.11225,0 0.17425,-0.0894 0.23675,-0.1665 0.14938,-0.1919 0.43563,-0.55079 0.98388,-0.83301 0.087,-0.0488 0.2115,-0.10986 0.2115,-0.25635 0,-0.12158 -0.087,-0.18261 -0.17438,-0.24365 -0.27387,-0.18994 -0.41062,-0.41798 -0.51075,-0.72168 -0.0249,-0.11377 -0.0746,-0.27881 -0.249,-0.27881 -0.17437,0 -0.249,0.16504 -0.249,0.26611 0,0.0635 0.0996,0.46827 0.29875,0.73438 l -4.19675,0 c -0.21137,0 -0.4355,0 -0.4355,0.25 0,0.25 0.22413,0.25 0.4355,0.25"
         style="fill:#000000;fill-opacity:1;fill-rule:nonzero;stroke:none"
         id="path10154"
         inkscape:connector-curvature="0" />
      <path
         d="m 201.93085,770.19158 c 0.37213,-0.47607 0.84325,-1.09034 1.14113,-1.41602 0.38425,-0.45117 0.89312,-0.63915 1.47562,-0.65234 l 0,-0.375 -2.2075,0 0,0.375 c 0.26075,0.0254 0.35988,0.18896 0.35988,0.39014 0,0.20166 -0.12413,0.36523 -0.18613,0.44042 l -0.769,0.98145 -0.96725,-1.27051 c -0.11137,-0.12598 -0.11137,-0.15136 -0.11137,-0.22656 0,-0.18897 0.186,-0.30224 0.43412,-0.31494 l 0,-0.375 -2.51762,0 0,0.375 c 0.86762,0 0.88038,0.0132 1.46337,0.76514 l 1.2275,1.6167 -1.1655,1.49121 c -0.59525,0.72705 -1.32712,0.75195 -1.58737,0.75195 l 0,0.375 2.207,0 0,-0.375 c -0.2725,-0.0376 -0.35938,-0.2002 -0.35938,-0.38819 0,-0.27539 0.35938,-0.68847 1.11625,-1.59032 l 0.94238,1.25243 c 0.0991,0.1377 0.26075,0.33789 0.26075,0.41309 0,0.11279 -0.11188,0.30029 -0.44675,0.31299 l 0,0.375 2.53075,0 0,-0.375 c -0.6705,0 -0.89363,-0.0249 -1.17875,-0.38868"
         style="fill:#000000;fill-opacity:1;fill-rule:nonzero;stroke:none"
         id="path10156"
         inkscape:connector-curvature="0" />
      <path
         d="m 208.02023,769.48846 c 0,-0.23097 -0.0181,-0.24024 -0.272,-0.24024 -0.5805,0.49219 -1.40575,0.5 -1.77775,0.5 l 0,0.375 c 0.21525,0 0.80662,0 1.29975,-0.28565 l 0,4.38965 c 0,0.28418 0,0.396 -0.8975,0.396 l -0.34125,0 0,0.375 3.11175,0 0,-0.375 -0.309,0 c -0.814,0 -0.814,-0.11133 -0.814,-0.39356"
         style="fill:#000000;fill-opacity:1;fill-rule:nonzero;stroke:none"
         id="path10158"
         inkscape:connector-curvature="0" />
    </g>
    <g
       id="g10227"
       transform="matrix(1.4452315,0,0,1.4452315,-188.58063,-213.42115)">
      <path
         d="m 220.70773,765.74822 c -0.17438,0.16455 -0.5855,0.51904 -0.5855,0.74659 0,0.12646 0.12462,0.25292 0.24912,0.25292 0.11225,0 0.17425,-0.0894 0.23675,-0.1665 0.14938,-0.1919 0.43563,-0.55079 0.98388,-0.83301 0.087,-0.0488 0.2115,-0.10986 0.2115,-0.25635 0,-0.12158 -0.087,-0.18261 -0.17438,-0.24365 -0.27387,-0.18994 -0.41062,-0.41798 -0.51075,-0.72168 -0.0249,-0.11377 -0.0746,-0.27881 -0.249,-0.27881 -0.17437,0 -0.249,0.16504 -0.249,0.26611 0,0.0635 0.0996,0.46827 0.29875,0.73438 l -4.19675,0 c -0.21137,0 -0.4355,0 -0.4355,0.25 0,0.25 0.22413,0.25 0.4355,0.25"
         style="fill:#000000;fill-opacity:1;fill-rule:nonzero;stroke:none"
         id="path10160"
         inkscape:connector-curvature="0" />
      <path
         d="m 218.30585,770.19158 c 0.37213,-0.47607 0.84325,-1.09034 1.14113,-1.41602 0.38425,-0.45117 0.89312,-0.63915 1.47562,-0.65234 l 0,-0.375 -2.2075,0 0,0.375 c 0.26075,0.0254 0.35988,0.18896 0.35988,0.39014 0,0.20166 -0.12413,0.36523 -0.18613,0.44042 l -0.769,0.98145 -0.96725,-1.27051 c -0.11137,-0.12598 -0.11137,-0.15136 -0.11137,-0.22656 0,-0.18897 0.186,-0.30224 0.43412,-0.31494 l 0,-0.375 -2.51762,0 0,0.375 c 0.86762,0 0.88038,0.0132 1.46337,0.76514 l 1.2275,1.6167 -1.1655,1.49121 c -0.59525,0.72705 -1.32712,0.75195 -1.58737,0.75195 l 0,0.375 2.207,0 0,-0.375 c -0.2725,-0.0376 -0.35938,-0.2002 -0.35938,-0.38819 0,-0.27539 0.35938,-0.68847 1.11625,-1.59032 l 0.94238,1.25243 c 0.0991,0.1377 0.26075,0.33789 0.26075,0.41309 0,0.11279 -0.11188,0.30029 -0.44675,0.31299 l 0,0.375 2.53075,0 0,-0.375 c -0.6705,0 -0.89363,-0.0249 -1.17875,-0.38868"
         style="fill:#000000;fill-opacity:1;fill-rule:nonzero;stroke:none"
         id="path10162"
         inkscape:connector-curvature="0" />
      <path
         d="m 225.77023,773.41179 -0.294,0 c -0.0259,0.18945 -0.11225,0.69825 -0.2245,0.78467 -0.0694,0.0518 -0.73438,0.0518 -0.855,0.0518 l -1.58938,0 c 0.90676,-0.80323 1.209,-1.04493 1.7275,-1.45069 0.63913,-0.50927 1.23538,-1.04442 1.23538,-1.86474 0,-1.04492 -0.89988,-1.68457 -1.98588,-1.68457 -1.05175,0 -1.76412,0.74024 -1.76412,1.52344 0,0.43408 0.355,0.47656 0.4375,0.47656 0.19775,0 0.4375,-0.14014 0.4375,-0.4375 0,-0.14844 -0.0645,-0.4375 -0.541,-0.4375 0.26412,-0.57275 0.84375,-0.75 1.24463,-0.75 0.85249,0 1.29637,0.66846 1.29637,1.36132 0,0.74464 -0.51713,1.33497 -0.78375,1.64308 l -2.00825,2.03661 c -0.083,0.0772 -0.083,0.0942 -0.083,0.33399 l 3.49512,0"
         style="fill:#000000;fill-opacity:1;fill-rule:nonzero;stroke:none"
         id="path10164"
         inkscape:connector-curvature="0" />
    </g>
    <g
       id="g10232"
       transform="matrix(1.4452315,0,0,1.4452315,-55.366344,-284.49258)">
      <path
         d="m 236.95773,765.74822 c -0.17438,0.16455 -0.5855,0.51904 -0.5855,0.74659 0,0.12646 0.12462,0.25292 0.24912,0.25292 0.11225,0 0.17425,-0.0894 0.23675,-0.1665 0.14938,-0.1919 0.43563,-0.55079 0.98388,-0.83301 0.087,-0.0488 0.2115,-0.10986 0.2115,-0.25635 0,-0.12158 -0.087,-0.18261 -0.17438,-0.24365 -0.27387,-0.18994 -0.41062,-0.41798 -0.51075,-0.72168 -0.0249,-0.11377 -0.0746,-0.27881 -0.249,-0.27881 -0.17437,0 -0.249,0.16504 -0.249,0.26611 0,0.0635 0.0996,0.46827 0.29875,0.73438 l -4.19675,0 c -0.21137,0 -0.4355,0 -0.4355,0.25 0,0.25 0.22413,0.25 0.4355,0.25"
         style="fill:#000000;fill-opacity:1;fill-rule:nonzero;stroke:none"
         id="path10166"
         inkscape:connector-curvature="0" />
      <path
         d="m 234.68085,770.19158 c 0.37213,-0.47607 0.84325,-1.09034 1.14113,-1.41602 0.38425,-0.45117 0.89312,-0.63915 1.47562,-0.65234 l 0,-0.375 -2.2075,0 0,0.375 c 0.26075,0.0254 0.35988,0.18896 0.35988,0.39014 0,0.20166 -0.12413,0.36523 -0.18613,0.44042 l -0.769,0.98145 -0.96725,-1.27051 c -0.11137,-0.12598 -0.11137,-0.15136 -0.11137,-0.22656 0,-0.18897 0.186,-0.30224 0.43412,-0.31494 l 0,-0.375 -2.51762,0 0,0.375 c 0.86762,0 0.88038,0.0132 1.46337,0.76514 l 1.2275,1.6167 -1.1655,1.49121 c -0.59525,0.72705 -1.32712,0.75195 -1.58737,0.75195 l 0,0.375 2.207,0 0,-0.375 c -0.2725,-0.0376 -0.35938,-0.2002 -0.35938,-0.38819 0,-0.27539 0.35938,-0.68847 1.11625,-1.59032 l 0.94238,1.25243 c 0.0991,0.1377 0.26075,0.33789 0.26075,0.41309 0,0.11279 -0.11188,0.30029 -0.44675,0.31299 l 0,0.375 2.53075,0 0,-0.375 c -0.6705,0 -0.89363,-0.0249 -1.17875,-0.38868"
         style="fill:#000000;fill-opacity:1;fill-rule:nonzero;stroke:none"
         id="path10168"
         inkscape:connector-curvature="0" />
      <path
         d="m 240.18873,772.12322 c 0.70162,0 1.206,0.44042 1.206,1.3125 0,1.01074 -0.643,1.31201 -1.16163,1.31201 -0.35737,0 -1.1435,-0.0781 -1.5185,-0.49951 0.41988,-0.0181 0.518,-0.31543 0.518,-0.50489 0,-0.28809 -0.21437,-0.4956 -0.49112,-0.4956 -0.2505,0 -0.5005,0.1499 -0.5005,0.51074 0,0.82764 0.91062,1.36475 1.97062,1.36475 1.21738,0 2.05863,-0.79883 2.05863,-1.65771 0,-0.66993 -0.56,-1.33937 -1.5215,-1.53712 0.9175,-0.32617 1.2495,-0.97021 1.2495,-1.49413 0,-0.67823 -0.79488,-1.18604 -1.76513,-1.18604 -0.96975,0 -1.71287,0.46924 -1.71287,1.16455 0,0.29541 0.187,0.46045 0.44187,0.46045 0.26325,0 0.43363,-0.19531 0.43363,-0.4331 0,-0.2461 -0.1695,-0.42481 -0.43113,-0.4419 0.31488,-0.3999 0.936,-0.5 1.269,-0.5 0.40475,0 0.97213,0.19091 0.97213,0.94482 0,0.36427 -0.12588,0.7627 -0.36025,1.03125 -0.29688,0.32959 -0.54888,0.34668 -0.99912,0.37257 -0.22501,0.0176 -0.24263,0.0176 -0.28801,0.0264 -0.0176,0 -0.0899,0.0186 -0.0899,0.12011 0,0.12989 0.081,0.12989 0.23387,0.12989"
         style="fill:#000000;fill-opacity:1;fill-rule:nonzero;stroke:none"
         id="path10170"
         inkscape:connector-curvature="0" />
    </g>
    <g
       id="g11610"
       transform="matrix(1.4397327,0,0,1.4397327,-164.434,-436.86306)">
      <path
         d="m 162.84724,920.27391 -1.69434,1.67188 0.22754,0.22119 1.4668,-1.25 1.45361,1.25 0.22754,-0.22119"
         style="fill:#000000;fill-opacity:1;fill-rule:nonzero;stroke:none"
         id="path11569"
         inkscape:connector-curvature="0" />
      <path
         d="m 162.93756,925.14598 c 0.0747,-0.32617 0.36134,-1.479 1.23292,-1.479 0.0625,0 0.36132,0 0.62305,0.12402 -0.37354,0.0635 -0.64014,0.37939 -0.64014,0.6831 0,0.20215 0.13476,0.44239 0.46485,0.44239 0.26904,0 0.66064,-0.21778 0.66064,-0.70118 0,-0.6289 -0.71387,-0.79833 -1.12549,-0.79833 -0.71875,0 -1.15136,0.65673 -1.2998,0.94141 -0.30958,-0.81739 -0.97754,-0.94141 -1.33643,-0.94141 -1.28662,0 -1.9917,1.60253 -1.9917,1.91308 0,0.12452 0.12451,0.12452 0.14942,0.12452 0.0996,0 0.1372,-0.0254 0.1621,-0.13868 0.42334,-1.33399 1.24512,-1.64892 1.66846,-1.64892 0.23681,0 0.67285,0.11328 0.67285,0.83985 0,0.38817 -0.21191,1.22802 -0.67285,2.98192 -0.19921,0.77686 -0.63476,1.30323 -1.18262,1.30323 -0.0747,0 -0.36132,0 -0.62304,-0.12549 0.30761,-0.063 0.57861,-0.32861 0.57861,-0.68261 0,-0.34132 -0.26953,-0.44239 -0.45264,-0.44239 -0.36718,0 -0.67285,0.31494 -0.67285,0.70166 0,0.55664 0.6211,0.79883 1.16797,0.79883 0.81982,0 1.26709,-0.86084 1.30419,-0.93507 0.14943,0.45509 0.5962,0.93507 1.34181,0.93507 1.27929,0 1.98828,-1.59717 1.98828,-1.90674 0,-0.12403 -0.11182,-0.12403 -0.14941,-0.12403 -0.11183,0 -0.13673,0.0503 -0.16163,0.13819 -0.41113,1.3413 -1.25781,1.64258 -1.65673,1.64258 -0.48535,0 -0.68458,-0.40137 -0.68458,-0.82715 0,-0.27539 0.0747,-0.55127 0.21143,-1.10254"
         style="fill:#000000;fill-opacity:1;fill-rule:nonzero;stroke:none"
         id="path11571"
         inkscape:connector-curvature="0" />
    </g>
    <g
       id="g11606"
       transform="matrix(1.4397327,0,0,1.4397327,73.962,-443.55081)">
      <path
         d="m 174.09726,920.27391 -1.69437,1.67188 0.2275,0.22119 1.46687,-1.25 1.45363,1.25 0.2275,-0.22119"
         style="fill:#000000;fill-opacity:1;fill-rule:nonzero;stroke:none"
         id="path11573"
         inkscape:connector-curvature="0" />
      <path
         d="m 176.33064,924.16893 c 0.0498,-0.17334 0.0498,-0.19824 0.0498,-0.28467 0,-0.22266 -0.17575,-0.33496 -0.36325,-0.33496 -0.125,0 -0.32513,0.0757 -0.4375,0.2627 -0.0254,0.0625 -0.125,0.44921 -0.17525,0.67383 -0.0874,0.3247 -0.17488,0.66162 -0.25,0.99853 l -0.563,2.24658 c -0.0499,0.18701 -0.58738,1.06104 -1.41313,1.06104 -0.63762,0 -0.77487,-0.54883 -0.77487,-1.01025 0,-0.57325 0.2095,-1.34669 0.62887,-2.44385 0.19725,-0.51124 0.24663,-0.64844 0.24663,-0.89747 0,-0.56103 -0.395,-1.02343 -1.01175,-1.02343 -1.17136,0 -1.62743,1.80127 -1.62743,1.91308 0,0.12452 0.12257,0.12452 0.14698,0.12452 0.12256,0 0.13476,-0.0254 0.19629,-0.22657 0.33106,-1.18311 0.82178,-1.56103 1.23878,-1.56103 0.0981,0 0.30713,0 0.30713,0.3999 0,0.31152 -0.11675,0.63575 -0.19875,0.87305 -0.46675,1.32128 -0.67724,2.03222 -0.67724,2.61816 0,1.10986 0.77637,1.48389 1.50299,1.48389 0.48087,0 0.89937,-0.20753 1.24463,-0.54883 -0.16213,0.64063 -0.31163,1.24414 -0.80963,1.89697 -0.32375,0.41895 -0.79688,0.77637 -1.36962,0.77637 -0.17438,0 -0.73487,-0.0356 -0.94678,-0.49951 0.19921,0 0.36132,0 0.53565,-0.15332 0.1245,-0.11524 0.249,-0.28126 0.249,-0.52442 0,-0.39599 -0.33588,-0.44726 -0.46093,-0.44726 -0.28613,0 -0.69726,0.19726 -0.69726,0.80176 0,0.61669 0.54785,1.07275 1.32032,1.07275 1.28274,0 2.56537,-1.12549 2.91399,-2.52295"
         style="fill:#000000;fill-opacity:1;fill-rule:nonzero;stroke:none"
         id="path11575"
         inkscape:connector-curvature="0" />
    </g>
    <g
       id="g11602"
       transform="matrix(1.4397327,0,0,1.4397327,-157.14658,-584.46709)">
      <path
         d="m 184.72226,920.27391 -1.69437,1.67188 0.2275,0.22119 1.46687,-1.25 1.45363,1.25 0.2275,-0.22119"
         style="fill:#000000;fill-opacity:1;fill-rule:nonzero;stroke:none"
         id="path11577"
         inkscape:connector-curvature="0" />
      <path
         d="m 182.55964,927.8828 c 0.67237,-0.7212 1.03375,-1.03222 1.48187,-1.41797 0,-0.0122 0.772,-0.67139 1.22076,-1.11914 1.18262,-1.15674 1.45699,-1.75391 1.45699,-1.80371 0,-0.125 -0.11225,-0.125 -0.13712,-0.125 -0.0875,0 -0.1245,0.0269 -0.187,0.14648 -0.37363,0.63965 -0.63488,0.85254 -0.93363,0.85254 -0.29937,0 -0.44875,-0.19971 -0.63525,-0.42627 -0.23687,-0.30615 -0.44825,-0.57275 -0.85937,-0.57275 -0.93413,0 -1.50688,1.15478 -1.50688,1.41503 0,0.0625 0.0376,0.13673 0.14938,0.13673 0.11237,0 0.13725,-0.0581 0.16212,-0.12843 0.23638,-0.53661 0.9585,-0.54833 1.05863,-0.54833 0.26125,0 0.498,0.0874 0.78425,0.18701 0.498,0.18701 0.63525,0.18701 0.95887,0.18701 -0.44825,0.5293 -1.49412,1.41406 -1.73087,1.61084 l -1.12063,1.03222 c -0.84712,0.82325 -1.28275,1.52393 -1.28275,1.60987 0,0.12305 0.1245,0.12305 0.14938,0.12305 0.0996,0 0.12462,-0.0234 0.19925,-0.15185 0.28612,-0.4087 0.66012,-0.72413 1.05862,-0.72413 0.28613,0 0.41063,0.10546 0.72213,0.44385 0.212,0.24511 0.43612,0.43213 0.79687,0.43213 1.233,0 1.95513,-1.57227 1.95513,-1.90674 0,-0.062 -0.0498,-0.12403 -0.14938,-0.12403 -0.11187,0 -0.13675,0.0713 -0.17437,0.15479 -0.28613,0.77441 -1.0835,1.00049 -1.49412,1.00049 -0.24901,0 -0.47313,-0.0498 -0.73488,-0.1084 -0.42338,-0.1084 -0.61038,-0.14209 -0.87163,-0.14209 -0.0249,0 -0.22412,0 -0.33637,-0.0332"
         style="fill:#000000;fill-opacity:1;fill-rule:nonzero;stroke:none"
         id="path11579"
         inkscape:connector-curvature="0" />
    </g>
    <ellipse
       style="opacity:0.15700001;fill:#000080;fill-opacity:1;stroke:none;stroke-width:1.34048438;stroke-linejoin:round;stroke-miterlimit:4;stroke-dasharray:8.04290608, 8.04290607999999985;stroke-dashoffset:0;stroke-opacity:1;marker-start:"
       id="path4288"
       cx="150.51273"
       cy="848.75238"
       rx="22.301716"
       ry="66.78997" />
    <g
       id="g4352"
       transform="matrix(1.2902855,0,0,1.2902855,-70.853981,-453.36888)"
       style="fill:#000080">
      <path
         d="m 186.92075,947.23857 c 0,-0.44922 0.0249,-0.58789 0.99023,-0.58789 l 0.30078,0 0,-0.375 -3.67383,0 0,0.375 0.29298,0 c 0.93994,0 0.96435,0.13721 0.96435,0.58545 l 0,2.91455 -3.75,0 0,-2.91455 c 0,-0.44824 0.0259,-0.58545 1.02344,-0.58545 l 0.31103,0 0,-0.375 -3.67334,0 0,0.375 0.28272,0 c 0.90722,0 0.93066,0.13867 0.93066,0.58789 l 0,6.57568 c 0,0.44922 -0.0234,0.58643 -0.93066,0.58643 l -0.28272,0 0,0.375 3.67334,0 0,-0.375 -0.31103,0 c -0.99756,0 -1.02344,-0.13819 -1.02344,-0.58935 l 0,-3.28565 3.75,0 0,3.28565 c 0,0.45116 -0.0244,0.58935 -0.96435,0.58935 l -0.29298,0 0,0.375 3.67383,0 0,-0.375 -0.30078,0 c -0.96533,0 -0.99023,-0.13721 -0.99023,-0.58643"
         style="fill:#000080;fill-opacity:1;fill-rule:nonzero;stroke:none"
         id="path4320"
         inkscape:connector-curvature="0" />
      <path
         d="m 192.67026,947.40068 2.69925,0 c 0.11475,0 0.32713,0 0.32713,-0.1836 0,-0.1914 -0.20363,-0.1914 -0.32713,-0.1914 l -2.69925,0 0,-2.67675 c 0,-0.11325 0,-0.32325 -0.18412,-0.32325 -0.19088,0 -0.19088,0.20113 -0.19088,0.32325 l 0,2.67675 -2.69043,0 c -0.11426,0 -0.32422,0 -0.32422,0.18359 0,0.19141 0.20117,0.19141 0.32422,0.19141 l 2.69043,0 0,2.67725 c 0,0.11327 0,0.32275 0.18363,0.32275 0.19137,0 0.19137,-0.20069 0.19137,-0.32275"
         style="fill:#000080;fill-opacity:1;fill-rule:nonzero;stroke:none"
         id="path4322"
         inkscape:connector-curvature="0" />
      <path
         d="m 193.04526,956.56425 -0.294,0 c -0.0259,0.18945 -0.11225,0.69825 -0.2245,0.78467 -0.0694,0.0518 -0.73443,0.0518 -0.85504,0.0518 l -1.58935,0 c 0.90674,-0.80323 1.20899,-1.04493 1.72754,-1.45069 0.6391,-0.50927 1.23535,-1.04442 1.23535,-1.86474 0,-1.04492 -0.8999,-1.68457 -1.98584,-1.68457 -1.05176,0 -1.76416,0.74024 -1.76416,1.52344 0,0.43408 0.35497,0.47656 0.4375,0.47656 0.19775,0 0.4375,-0.14014 0.4375,-0.4375 0,-0.14844 -0.0645,-0.4375 -0.54101,-0.4375 0.26416,-0.57275 0.84375,-0.75 1.24462,-0.75 0.85254,0 1.29639,0.66846 1.29639,1.36132 0,0.74464 -0.51709,1.33497 -0.78369,1.64308 l -2.0083,2.03661 c -0.083,0.0771 -0.083,0.0942 -0.083,0.33399 l 3.49513,0"
         style="fill:#000080;fill-opacity:1;fill-rule:nonzero;stroke:none"
         id="path4324"
         inkscape:connector-curvature="0" />
    </g>
    <g
       id="g4348"
       transform="matrix(1.2902855,0,0,1.2902855,36.318365,-440.2369)"
       style="fill:#800000">
      <path
         d="m 202.41926,947.77519 4.50098,0 0,-0.375 -4.50098,0 0,0.375 z"
         style="fill:#800000;fill-opacity:1;fill-rule:nonzero;stroke:none"
         id="path4326"
         inkscape:connector-curvature="0" />
      <path
         d="m 203.19026,950.09307 0,-0.8169 -1.79638,0.13086 0,0.36914 c 0.82038,0 0.90088,0.0747 0.90088,0.62158 l 0,5.81835 c 0,0.55909 -0.127,0.55909 -0.90088,0.55909 l 0,0.375 2.80226,0 0,-0.375 c -0.88138,0 -1.02588,0 -1.02588,-0.5542 l 0,-2.18017 c 0.063,0.19677 0.59425,0.86035 1.55475,0.86035 1.50437,0 2.82025,-1.2168 2.82025,-2.81885 0,-1.57667 -1.21138,-2.80615 -2.60837,-2.80615 -0.97313,0 -1.49713,0.54492 -1.74663,0.8169 z m -0.02,3.27245 0,-2.7832 c 0.37213,-0.63672 1.0005,-0.99952 1.65475,-0.99952 0.9365,0 1.71975,1.09913 1.71975,2.50978 0,1.51025 -0.89838,2.55859 -1.84763,2.55859 -0.51374,0 -1.00099,-0.25 -1.34762,-0.76172 -0.17925,-0.26172 -0.17925,-0.27442 -0.17925,-0.52393"
         style="fill:#800000;fill-opacity:1;fill-rule:nonzero;stroke:none"
         id="path4328"
         inkscape:connector-curvature="0" />
    </g>
  </g>
</svg>
